<svg width="16" height="16" viewBox="0 0 16 16" fill="none" xmlns="http://www.w3.org/2000/svg">
<g clip-path="url(#clip0_256_600)">
<path fill-rule="evenodd" clip-rule="evenodd" d="M4.11336 0C4.59633 0 4.98785 0.391524 4.98785 0.874493V1.29556H11.0121V0.874493C11.0121 0.391524 11.4037 0 11.8866 0C12.3696 0 12.7611 0.391524 12.7611 0.874493V1.29556H13.83C15.029 1.29556 16 2.26777 16 3.4656V6.70445V13.83C16 15.0281 15.0281 16 13.83 16H2.17004C0.970996 16 0 15.0278 0 13.83V6.70445V3.4656C0 2.26655 0.972214 1.29556 2.17004 1.29556H3.23886V0.874493C3.23886 0.391524 3.63039 0 4.11336 0ZM11.0121 3.04454V4.11336C11.0121 4.59633 11.4037 4.98785 11.8866 4.98785C12.3696 4.98785 12.7611 4.59633 12.7611 4.11336V3.04454H13.83C14.0625 3.04454 14.251 3.23314 14.251 3.4656V5.82996H1.74899V3.4656C1.74899 3.23306 1.93758 3.04454 2.17004 3.04454H3.23886V4.11336C3.23886 4.59633 3.63039 4.98785 4.11336 4.98785C4.59633 4.98785 4.98785 4.59633 4.98785 4.11336V3.04454H11.0121ZM14.251 7.57894V13.83C14.251 14.0621 14.0621 14.251 13.83 14.251H2.17004C1.9375 14.251 1.74899 14.0624 1.74899 13.83V7.57894H14.251Z" fill="#344054"/>
</g>
<defs>
<clipPath id="clip0_256_600">
<rect width="16" height="16" fill="white"/>
</clipPath>
</defs>
</svg>
