<svg width="18" height="19" viewBox="0 0 18 19" fill="none" xmlns="http://www.w3.org/2000/svg">
<g clip-path="url(#clip0_256_1744)">
<path d="M3 17.75C2.17125 17.75 1.5 17.0788 1.5 16.25V10.25C1.5 9.42125 2.17125 8.75 3 8.75C3.82875 8.75 4.5 9.42125 4.5 10.25V16.25C4.5 17.0788 3.82875 17.75 3 17.75Z" stroke="#D0D5DD" stroke-width="1.8" stroke-miterlimit="10" stroke-linecap="round" stroke-linejoin="round"/>
<path d="M15 17.75C14.1712 17.75 13.5 17.0788 13.5 16.25V8C13.5 7.17125 14.1712 6.5 15 6.5C15.8288 6.5 16.5 7.17125 16.5 8V16.25C16.5 17.0788 15.8288 17.75 15 17.75Z" stroke="#D0D5DD" stroke-width="1.8" stroke-miterlimit="10" stroke-linecap="round" stroke-linejoin="round"/>
<path d="M9 17.75C8.17125 17.75 7.5 17.0788 7.5 16.25V2.75C7.5 1.92125 8.17125 1.25 9 1.25C9.82875 1.25 10.5 1.92125 10.5 2.75V16.25C10.5 17.0788 9.82875 17.75 9 17.75Z" stroke="#D0D5DD" stroke-width="1.8" stroke-miterlimit="10" stroke-linecap="round" stroke-linejoin="round"/>
</g>
<defs>
<clipPath id="clip0_256_1744">
<rect width="18" height="18" fill="white" transform="translate(0 0.5)"/>
</clipPath>
</defs>
</svg>
