<svg width="18" height="18" viewBox="0 0 18 18" fill="none" xmlns="http://www.w3.org/2000/svg">
<g clip-path="url(#clip0_256_1761)">
<path fill-rule="evenodd" clip-rule="evenodd" d="M8.01619 2.03588C6.80947 2.20481 5.70092 2.67997 4.77163 3.3803L5.57315 4.18182C5.95735 4.56602 5.95735 5.18894 5.57315 5.57314C5.18895 5.95734 4.56604 5.95734 4.18184 5.57314L3.38031 4.77161C2.67998 5.70091 2.2048 6.80947 2.03588 8.01621H3.17005C3.71339 8.01621 4.15385 8.45667 4.15385 9.00001C4.15385 9.54335 3.71339 9.98382 3.17005 9.98382H2.03588C2.51438 13.4019 5.45 16.0324 9 16.0324C12.55 16.0324 15.4856 13.4019 15.9641 9.98382H14.83C14.2866 9.98382 13.8462 9.54335 13.8462 9.00001C13.8462 8.45667 14.2866 8.01621 14.83 8.01621H15.9641C15.7952 6.80947 15.32 5.70091 14.6197 4.77161L13.8182 5.57314C13.434 5.95734 12.811 5.95734 12.4268 5.57314C12.0426 5.18894 12.0426 4.56602 12.4268 4.18182L13.2284 3.3803C12.2991 2.67997 11.1905 2.20481 9.9838 2.03588V3.17003C9.9838 3.71337 9.54334 4.15384 9 4.15384C8.45666 4.15384 8.01619 3.71337 8.01619 3.17003V2.03588ZM9 0C4.02944 0 0 4.02944 0 9C0 13.9706 4.02944 18 9 18C13.9706 18 18 13.9706 18 9C18 4.02944 13.9706 0 9 0ZM8.52632 11.915C8.52632 11.6547 8.7363 11.4434 8.99613 11.4413L9 11.4413L9.00387 11.4413C9.26369 11.4434 9.47368 11.6547 9.47368 11.915C9.47368 12.1766 9.26161 12.3887 9 12.3887C8.73839 12.3887 8.52632 12.1766 8.52632 11.915ZM6.55871 11.915C6.55871 10.9167 7.15787 10.0584 8.01619 9.68001V6.81378C8.01619 6.27044 8.45666 5.82997 9 5.82997C9.54334 5.82997 9.9838 6.27044 9.9838 6.81378V9.68001C10.8421 10.0584 11.4413 10.9167 11.4413 11.915C11.4413 13.2633 10.3483 14.3563 9 14.3563C7.65171 14.3563 6.55871 13.2633 6.55871 11.915Z" fill="#D0D5DD"/>
</g>
<defs>
<clipPath id="clip0_256_1761">
<rect width="18" height="18" fill="white"/>
</clipPath>
</defs>
</svg>
