<svg width="16" height="17" viewBox="0 0 16 17" fill="none" xmlns="http://www.w3.org/2000/svg">
<g clip-path="url(#clip0_256_922)">
<path fill-rule="evenodd" clip-rule="evenodd" d="M0.453012 4.98929C-0.646979 3.55637 0.38317 1.50002 2.17941 1.50002H13.8206C15.6168 1.50002 16.647 3.55637 15.547 4.98929L15.5445 4.9925L10.817 11.0921V12.7792C10.817 13.5985 10.3794 14.4059 9.54874 14.7673L6.40455 16.1285C6.13434 16.2455 5.8234 16.2186 5.57729 16.0569C5.33117 15.8953 5.18296 15.6206 5.18296 15.3262V11.0921L0.453012 4.98929ZM1.83907 3.9234C1.83937 3.92379 1.83967 3.92419 1.83998 3.92458L6.74822 10.2575C6.86701 10.4107 6.93147 10.5991 6.93147 10.793V13.995L8.85125 13.1639C8.85104 13.164 8.85145 13.1638 8.85125 13.1639C8.96716 13.1132 9.06853 12.9892 9.06853 12.7792V10.793C9.06853 10.5991 9.13299 10.4107 9.25178 10.2575L14.16 3.92458C14.1603 3.9242 14.1606 3.92382 14.1609 3.92343C14.3689 3.65061 14.179 3.24852 13.8206 3.24852H2.17941C1.82097 3.24852 1.63108 3.65058 1.83907 3.9234Z" fill="#344054"/>
</g>
<defs>
<clipPath id="clip0_256_922">
<rect width="16" height="16" fill="white" transform="translate(0 0.5)"/>
</clipPath>
</defs>
</svg>
