<svg width="18" height="18" viewBox="0 0 18 18" fill="none" xmlns="http://www.w3.org/2000/svg">
<g clip-path="url(#clip0_256_1792)">
<path fill-rule="evenodd" clip-rule="evenodd" d="M2.16 1.08C2.16 0.483532 1.67647 0 1.08 0C0.483532 0 0 0.483532 0 1.08V16.92C0 17.5165 0.483532 18 1.08 18H16.92C17.5165 18 18 17.5165 18 16.92C18 16.3235 17.5165 15.84 16.92 15.84H2.16V1.08ZM17.74 4.66286C18.1282 4.20999 18.0757 3.52819 17.6229 3.14001C17.17 2.75184 16.4882 2.80428 16.1 3.25715L12.1916 7.81694L9.21181 7.22098C8.8235 7.14332 8.42383 7.2844 8.17032 7.58861L4.57032 11.9086C4.18847 12.3668 4.25038 13.0478 4.7086 13.4297C5.16682 13.8115 5.84783 13.7496 6.22968 13.2914L9.4183 9.46506L12.3882 10.059C12.7712 10.1356 13.1658 9.99945 13.42 9.70286L17.74 4.66286Z" fill="#D0D5DD"/>
</g>
<defs>
<clipPath id="clip0_256_1792">
<rect width="18" height="18" fill="white"/>
</clipPath>
</defs>
</svg>
