<svg width="18" height="19" viewBox="0 0 18 19" fill="none" xmlns="http://www.w3.org/2000/svg">
<g clip-path="url(#clip0_256_1737)">
<path fill-rule="evenodd" clip-rule="evenodd" d="M9.62298 0.72239C9.26058 0.42588 8.73942 0.42588 8.37702 0.72239L0.360823 7.28109C0.132447 7.46795 0 7.74744 0 8.04252V16.0587C0 17.4073 1.09269 18.5 2.4413 18.5H6.08502H11.915H15.5587C16.9073 18.5 18 17.4073 18 16.0587V8.04252C18 7.74744 17.8676 7.46795 17.6392 7.28109L9.62298 0.72239ZM12.8988 16.5324H15.5587C15.8206 16.5324 16.0324 16.3206 16.0324 16.0587V8.50872L9 2.75495L1.96761 8.50872V16.0587C1.96761 16.3206 2.17937 16.5324 2.4413 16.5324H5.10121V13.1437C5.10121 10.9906 6.84686 9.24495 9 9.24495C11.1531 9.24495 12.8988 10.9906 12.8988 13.1437V16.5324ZM7.06883 16.5324V13.1437C7.06883 12.0773 7.93354 11.2126 9 11.2126C10.0665 11.2126 10.9312 12.0773 10.9312 13.1437V16.5324H7.06883Z" fill="white"/>
</g>
<defs>
<clipPath id="clip0_256_1737">
<rect width="18" height="18" fill="white" transform="translate(0 0.5)"/>
</clipPath>
</defs>
</svg>
