<svg width="18" height="18" viewBox="0 0 18 18" fill="none" xmlns="http://www.w3.org/2000/svg">
<g clip-path="url(#clip0_256_4222)">
<path fill-rule="evenodd" clip-rule="evenodd" d="M0 2.12913C0 1.57456 0.449565 1.12499 1.00413 1.12499H15.8802C16.4347 1.12499 16.8843 1.57456 16.8843 2.12913C16.8843 2.68369 16.4347 3.13326 15.8802 3.13326H1.00413C0.449565 3.13326 0 2.68369 0 2.12913ZM1.00413 5.5878C0.449565 5.5878 0 6.03737 0 6.59194C0 7.1465 0.449565 7.59607 1.00413 7.59607H9.92976C10.4843 7.59607 10.9339 7.1465 10.9339 6.59194C10.9339 6.03737 10.4843 5.5878 9.92976 5.5878H1.00413ZM0 11.0548C0 10.5002 0.449565 10.0506 1.00413 10.0506H9.92976C10.4843 10.0506 10.9339 10.5002 10.9339 11.0548C10.9339 11.6093 10.4843 12.0589 9.92976 12.0589H1.00413C0.449565 12.0589 0 11.6093 0 11.0548ZM0 15.5176C0 14.963 0.449565 14.5134 1.00413 14.5134H15.8802C16.4347 14.5134 16.8843 14.963 16.8843 15.5176C16.8843 16.0721 16.4347 16.5217 15.8802 16.5217H1.00413C0.449565 16.5217 0 16.0721 0 15.5176ZM14.3159 5.09763C13.9014 4.72919 13.2667 4.76653 12.8983 5.18101C12.5298 5.5955 12.5672 6.23019 12.9816 6.59862L15.4844 8.82333L12.9816 11.048C12.5672 11.4165 12.5298 12.0512 12.8983 12.4657C13.2667 12.8801 13.9014 12.9175 14.3159 12.549L17.663 9.57383C17.8773 9.38328 18 9.11015 18 8.82333C18 8.53651 17.8773 8.26339 17.663 8.07283L14.3159 5.09763Z" fill="#D0D5DD"/>
</g>
<defs>
<clipPath id="clip0_256_4222">
<rect width="18" height="18" fill="white"/>
</clipPath>
</defs>
</svg>
