<svg width="18" height="18" viewBox="0 0 18 18" fill="none" xmlns="http://www.w3.org/2000/svg">
<g clip-path="url(#clip0_256_1727)">
<path fill-rule="evenodd" clip-rule="evenodd" d="M1.1157 2.12912C1.1157 1.57456 1.56527 1.12499 2.11983 1.12499H16.9959C17.5504 1.12499 18 1.57456 18 2.12912C18 2.68369 17.5504 3.13326 16.9959 3.13326H2.11983C1.56527 3.13326 1.1157 2.68369 1.1157 2.12912ZM7.06612 6.59193C7.06612 6.03736 7.51569 5.5878 8.07026 5.5878H16.9959C17.5504 5.5878 18 6.03736 18 6.59193C18 7.1465 17.5504 7.59606 16.9959 7.59606H8.07026C7.51569 7.59606 7.06612 7.1465 7.06612 6.59193ZM8.07026 10.0506C7.51569 10.0506 7.06612 10.5002 7.06612 11.0547C7.06612 11.6093 7.51569 12.0589 8.07026 12.0589H16.9959C17.5504 12.0589 18 11.6093 18 11.0547C18 10.5002 17.5504 10.0506 16.9959 10.0506H8.07026ZM1.1157 15.5175C1.1157 14.963 1.56527 14.5134 2.11983 14.5134H16.9959C17.5504 14.5134 18 14.963 18 15.5175C18 16.0721 17.5504 16.5217 16.9959 16.5217H2.11983C1.56527 16.5217 1.1157 16.0721 1.1157 15.5175ZM5.01835 6.59862C5.43283 6.23018 5.47017 5.5955 5.10174 5.18101C4.7333 4.76652 4.09862 4.72919 3.68413 5.09762L0.337023 8.07283C0.122653 8.26338 0 8.5365 0 8.82332C0 9.11014 0.122653 9.38327 0.337023 9.57382L3.68413 12.549C4.09862 12.9175 4.7333 12.8801 5.10174 12.4656C5.47017 12.0511 5.43283 11.4165 5.01835 11.048L2.51555 8.82332L5.01835 6.59862Z" fill="#D0D5DD"/>
</g>
<defs>
<clipPath id="clip0_256_1727">
<rect width="18" height="18" fill="white"/>
</clipPath>
</defs>
</svg>
