<svg width="18" height="18" viewBox="0 0 18 18" fill="none" xmlns="http://www.w3.org/2000/svg">
<g clip-path="url(#clip0_256_1774)">
<path fill-rule="evenodd" clip-rule="evenodd" d="M1.96761 9C1.96761 5.11612 5.11612 1.96761 9 1.96761C12.8839 1.96761 16.0324 5.11612 16.0324 9C16.0324 12.8839 12.8839 16.0324 9 16.0324C5.11612 16.0324 1.96761 12.8839 1.96761 9ZM9 0C4.02944 0 0 4.02944 0 9C0 13.9706 4.02944 18 9 18C13.9706 18 18 13.9706 18 9C18 4.02944 13.9706 0 9 0ZM9.98381 4.62754C9.98381 4.0842 9.54334 3.64374 9 3.64374C8.45666 3.64374 8.0162 4.0842 8.0162 4.62754V5.11436C6.78753 5.24183 5.82996 6.28003 5.82996 7.5425C5.82996 8.8911 6.92265 9.98379 8.27126 9.98379H9.72875C9.99067 9.98379 10.2024 10.1956 10.2024 10.4575C10.2024 10.7194 9.99067 10.9312 9.72875 10.9312H7.54251C6.99917 10.9312 6.55871 11.3716 6.55871 11.915C6.55871 12.4583 6.99917 12.8988 7.54251 12.8988H8.0162V13.3725C8.0162 13.9158 8.45666 14.3563 9 14.3563C9.54334 14.3563 9.98381 13.9158 9.98381 13.3725V12.8856C11.2125 12.7581 12.17 11.7199 12.17 10.4575C12.17 9.10887 11.0774 8.01618 9.72875 8.01618H8.27126C8.00933 8.01618 7.79757 7.80442 7.79757 7.5425C7.79757 7.28058 8.00933 7.06881 8.27126 7.06881H8.99322L9 7.06884L9.00678 7.06881H10.4575C11.0008 7.06881 11.4413 6.62835 11.4413 6.08501C11.4413 5.54167 11.0008 5.1012 10.4575 5.1012H9.98381V4.62754Z" fill="#D0D5DD"/>
</g>
<defs>
<clipPath id="clip0_256_1774">
<rect width="18" height="18" fill="white"/>
</clipPath>
</defs>
</svg>
