<svg width="18" height="18" viewBox="0 0 18 18" fill="none" xmlns="http://www.w3.org/2000/svg">
<g clip-path="url(#clip0_256_1807)">
<path fill-rule="evenodd" clip-rule="evenodd" d="M9.72 0C9.12353 0 8.64 0.483534 8.64 1.08V8.28C8.64 8.87647 9.12353 9.36 9.72 9.36H16.92C17.5165 9.36 18 8.87647 18 8.28C18 3.70697 14.293 0 9.72 0ZM10.8 7.2V2.25498C13.3144 2.70264 15.2974 4.68561 15.745 7.2H10.8ZM7.05475 3.72315C7.63931 3.60455 8.01704 3.03452 7.89843 2.44997C7.77983 1.86541 7.20981 1.48768 6.62525 1.60628C2.84576 2.37311 0 5.7128 0 9.72C0 14.293 3.70697 18 8.28 18C12.2872 18 15.6269 15.1542 16.3937 11.3747C16.5123 10.7902 16.1346 10.2202 15.55 10.1016C14.9655 9.98296 14.3954 10.3607 14.2768 10.9452C13.7102 13.7379 11.2395 15.84 8.28 15.84C4.89991 15.84 2.16 13.1001 2.16 9.72C2.16 6.76047 4.26208 4.28976 7.05475 3.72315Z" fill="#D0D5DD"/>
</g>
<defs>
<clipPath id="clip0_256_1807">
<rect width="18" height="18" fill="white"/>
</clipPath>
</defs>
</svg>
