<svg width="18" height="18" viewBox="0 0 18 18" fill="none" xmlns="http://www.w3.org/2000/svg">
<g clip-path="url(#clip0_256_1752)">
<path fill-rule="evenodd" clip-rule="evenodd" d="M2.51328 4.5C2.51328 3.40244 3.40322 2.5125 4.50078 2.5125H13.5008C14.5983 2.5125 15.4883 3.40244 15.4883 4.5V13.5C15.4883 14.5976 14.5983 15.4875 13.5008 15.4875H4.50078C3.40322 15.4875 2.51328 14.5976 2.51328 13.5V4.5ZM4.50078 0.487503C2.28484 0.487503 0.488281 2.28406 0.488281 4.5V13.5C0.488281 15.7159 2.28484 17.5125 4.50078 17.5125H13.5008C15.7167 17.5125 17.5133 15.7159 17.5133 13.5V4.5C17.5133 2.28406 15.7167 0.487503 13.5008 0.487503H4.50078ZM10.0133 4.49999C10.0133 3.9408 9.55997 3.48749 9.00078 3.48749C8.44159 3.48749 7.98828 3.9408 7.98828 4.49999V13.5C7.98828 14.0592 8.44159 14.5125 9.00078 14.5125C9.55997 14.5125 10.0133 14.0592 10.0133 13.5V4.49999ZM5.25078 8.73751C5.80997 8.73751 6.26328 9.19083 6.26328 9.75001V13.5C6.26328 14.0592 5.80997 14.5125 5.25078 14.5125C4.6916 14.5125 4.23828 14.0592 4.23828 13.5V9.75001C4.23828 9.19083 4.6916 8.73751 5.25078 8.73751ZM13.7633 6.74999C13.7633 6.1908 13.31 5.73749 12.7508 5.73749C12.1916 5.73749 11.7383 6.1908 11.7383 6.74999V13.5C11.7383 14.0592 12.1916 14.5125 12.7508 14.5125C13.31 14.5125 13.7633 14.0592 13.7633 13.5V6.74999Z" fill="#D0D5DD"/>
</g>
<defs>
<clipPath id="clip0_256_1752">
<rect width="18" height="18" fill="white"/>
</clipPath>
</defs>
</svg>
