<svg width="16" height="16" viewBox="0 0 16 16" fill="none" xmlns="http://www.w3.org/2000/svg">
<g clip-path="url(#clip0_256_1815)">
<path fill-rule="evenodd" clip-rule="evenodd" d="M2.23359 6.66667C2.23359 4.2182 4.21846 2.23333 6.66693 2.23333C9.11539 2.23333 11.1003 4.2182 11.1003 6.66667C11.1003 9.11513 9.11539 11.1 6.66693 11.1C4.21846 11.1 2.23359 9.11513 2.23359 6.66667ZM6.66693 0.433333C3.22435 0.433333 0.433594 3.22409 0.433594 6.66667C0.433594 10.1092 3.22435 12.9 6.66693 12.9C8.0636 12.9 9.35298 12.4406 10.3922 11.6648L14.0305 15.3031C14.382 15.6545 14.9519 15.6545 15.3033 15.3031C15.6548 14.9516 15.6548 14.3818 15.3033 14.0303L11.665 10.392C12.4409 9.35273 12.9003 8.06334 12.9003 6.66667C12.9003 3.22409 10.1095 0.433333 6.66693 0.433333Z" fill="#D0D5DD"/>
</g>
<defs>
<clipPath id="clip0_256_1815">
<rect width="16" height="16" fill="white"/>
</clipPath>
</defs>
</svg>
