<svg width="18" height="18" viewBox="0 0 18 18" fill="none" xmlns="http://www.w3.org/2000/svg">
<g clip-path="url(#clip0_256_1799)">
<path fill-rule="evenodd" clip-rule="evenodd" d="M0.565509 14.0003C0.748432 13.4887 1.31147 13.2222 1.8231 13.4052L9.00091 15.9715L16.1787 13.4052C16.6903 13.2222 17.2534 13.4887 17.4363 14.0003C17.6192 14.512 17.3528 15.075 16.8411 15.2579L9.33212 17.9426C9.11795 18.0192 8.88387 18.0192 8.6697 17.9426L1.16068 15.2579C0.649054 15.075 0.382587 14.512 0.565509 14.0003Z" fill="#D0D5DD"/>
<path fill-rule="evenodd" clip-rule="evenodd" d="M8.61471 0.078546C8.86083 -0.026182 9.13899 -0.026182 9.38511 0.0785459L16.9377 3.29226C16.9377 3.29224 16.9378 3.29228 16.9377 3.29226C18.4026 3.91546 18.3366 6.00534 16.8377 6.53644C16.8376 6.53648 16.8378 6.5364 16.8377 6.53644L9.32864 9.19855C9.11597 9.27395 8.88385 9.27395 8.67117 9.19855L1.16215 6.53644C-0.334625 6.00473 -0.404312 3.9161 1.06196 3.29233C1.06191 3.29235 1.06201 3.2923 1.06196 3.29233L8.61471 0.078546ZM8.99991 2.05298L2.36622 4.87569L8.99991 7.22749L15.6336 4.87569L8.99991 2.05298ZM16.1802 4.68191C16.1801 4.68193 16.1802 4.6819 16.1802 4.68191V4.68191Z" fill="#D0D5DD"/>
<path fill-rule="evenodd" clip-rule="evenodd" d="M0.564317 9.66184C0.745387 9.14955 1.30746 8.88105 1.81975 9.06212L9.00091 11.6003L16.1821 9.06212C16.6944 8.88105 17.2564 9.14955 17.4375 9.66184C17.6186 10.1741 17.3501 10.7362 16.8378 10.9173L9.32877 13.5714C9.11663 13.6464 8.8852 13.6464 8.67306 13.5714L1.16404 10.9173C0.65175 10.7362 0.383247 10.1741 0.564317 9.66184Z" fill="#D0D5DD"/>
</g>
<defs>
<clipPath id="clip0_256_1799">
<rect width="18" height="18" fill="white"/>
</clipPath>
</defs>
</svg>
