<svg width="16" height="16" viewBox="0 0 16 16" fill="none" xmlns="http://www.w3.org/2000/svg">
<g clip-path="url(#clip0_256_1832)">
<path d="M16 4.686L12.6667 3.33333L11.3333 0L8 1.33333L4.66667 0L3.33333 3.33333L0 4.686L1.33333 8L0 11.314L3.33333 12.6667L4.66667 16L8 14.6667L11.3333 16L12.6667 12.6667L16 11.314L14.6667 8L16 4.686ZM8 12C5.79067 12 4 10.2093 4 8C4 5.79067 5.79067 4 8 4C10.2093 4 12 5.79067 12 8C12 10.2093 10.2093 12 8 12Z" fill="white"/>
</g>
<defs>
<clipPath id="clip0_256_1832">
<rect width="16" height="16" fill="white"/>
</clipPath>
</defs>
</svg>
