<svg width="18" height="18" viewBox="0 0 18 18" fill="none" xmlns="http://www.w3.org/2000/svg">
<path fill-rule="evenodd" clip-rule="evenodd" d="M11.1953 1.19569C11.3961 1.16074 11.6427 1.125 11.915 1.125C14.2663 1.125 16.1781 3.0368 16.1781 5.38816C16.1781 7.73952 14.2663 9.65132 11.915 9.65132C11.6414 9.65132 11.3935 9.61435 11.1992 9.58117C10.6636 9.48973 10.3036 8.98142 10.395 8.44583C10.4864 7.91024 10.9948 7.55018 11.5303 7.64162C11.6946 7.66966 11.8111 7.68371 11.915 7.68371C13.1797 7.68371 14.2105 6.65283 14.2105 5.38816C14.2105 4.12348 13.1797 3.09261 11.915 3.09261C11.8097 3.09261 11.692 3.10642 11.5328 3.13415C10.9975 3.22734 10.488 2.86894 10.3948 2.33365C10.3016 1.79836 10.66 1.28888 11.1953 1.19569ZM6.08502 10.5987C4.48008 10.5987 2.98985 11.0988 1.88039 11.9507C0.770292 12.8031 0 14.0494 0 15.4995V16.6837C0 17.2271 0.440465 17.6675 0.983806 17.6675C1.52715 17.6675 1.96761 17.2271 1.96761 16.6837V15.4995C1.96761 14.7896 2.34145 14.0774 3.07871 13.5113C3.81663 12.9447 4.87701 12.5663 6.08502 12.5663C7.29303 12.5663 8.35341 12.9447 9.09133 13.5113C9.82859 14.0774 10.2024 14.7896 10.2024 15.4995V16.6837C10.2024 17.2271 10.6429 17.6675 11.1862 17.6675C11.7296 17.6675 12.17 17.2271 12.17 16.6837V15.4995C12.17 14.0494 11.3997 12.8031 10.2896 11.9507C9.18019 11.0988 7.68996 10.5987 6.08502 10.5987ZM12.8006 10.6549C12.261 10.5916 11.7722 10.9778 11.7089 11.5174C11.6456 12.0571 12.0317 12.5459 12.5714 12.6092C14.7466 12.8643 16.0324 14.2365 16.0324 15.4995V16.6837C16.0324 17.227 16.4729 17.6675 17.0162 17.6675C17.5595 17.6675 18 17.227 18 16.6837V15.4995C18 12.8463 15.5211 10.974 12.8006 10.6549ZM3.78947 5.38816C3.78947 4.12036 4.81722 3.09261 6.08502 3.09261C7.35281 3.09261 8.38056 4.12036 8.38056 5.38816C8.38056 6.65595 7.35281 7.68371 6.08502 7.68371C4.81722 7.68371 3.78947 6.65595 3.78947 5.38816ZM6.08502 1.125C3.73054 1.125 1.82186 3.03368 1.82186 5.38816C1.82186 7.74264 3.73054 9.65132 6.08502 9.65132C8.4395 9.65132 10.3482 7.74264 10.3482 5.38816C10.3482 3.03368 8.4395 1.125 6.08502 1.125Z" fill="#D0D5DD"/>
</svg>
